{"title":"Jack Ryan: Shadow Recruit.2014.1080p.BluRay.5.1.x264 . NVEE","uid":10178689,"size":2275234097,"categoryP":"video","categoryS":"hd___movies","magnet":"?xt=urn:btih:2a2ea883d4e9449b96474007580fca5e7d608da2&amp;dn=Jack+Ryan%3A+Shadow+Recruit.2014.1080p.BluRay.5.1.x264+.+NVEE&amp;tr=udp%3A%2F%2Ftracker.openbittorrent.com%3A80&amp;tr=udp%3A%2F%2Fopen.demonii.com%3A1337&amp;tr=udp%3A%2F%2Ftracker.coppersurfer.tk%3A6969&amp;tr=udp%3A%2F%2Fexodus.desync.com%3A6969","seeders":3,"leechers":0,"uploader":".NVEE","files":-1,"time":1400458781,"description":"\nQuick note :\nIf you require a torrent release I have posted in the past, not seeding,...\nPlease do not hesitate to inform me in any means you find fit to do so.\nTorrent requests also &quot;Always Welcome.&quot;\n\n\nFULL_INFOs\n\n99.99% --- SYNCED GUARANTEED \n\n&quot;Totally scrutinized / analyzed to be a verified torrent.&quot;\n___________________________________________\n\nSource : Blu-ray ~ 1080p\n\n\n\nSpoken Language : English\n\nAudio : 6 ~ Channels Only\n\n\nSubs Info :\n\nx3 Embedded English Subs ~ UTF-8 Forced ~ English / Standard ~ SDH / Hearing Impaired &amp; .srt English out of the box.\n\nText #1\nID : 3\nFormat : Timed Text\nCodec ID : tx3g\nDuration : 1h 36mn\nBit rate mode : Variable\nBit rate : 3 bps\nStream size : 2.21 KiB (0%)\nTitle : Forced\nLanguage : English\nEncoded date : UTC 2014-05-19 03:57:57\nTagged date : UTC 2014-05-19 03:57:58\n\nText #2\nID : 4\nFormat : Timed Text\nCodec ID : tx3g\nDuration : 1h 38mn\nBit rate mode : Variable\nBit rate : 66 bps\nStream size : 47.5 KiB (0%)\nLanguage : English\nEncoded date : UTC 2014-05-19 03:57:57\nTagged date : UTC 2014-05-19 03:57:58\n\nText #3\nID : 5\nFormat : Timed Text\nCodec ID : tx3g\nDuration : 1h 38mn\nBit rate mode : Variable\nBit rate : 75 bps\nStream size : 54.4 KiB (0%)\nTitle : SDH / Hearing Impaired\nLanguage : English\nEncoded date : UTC 2014-05-19 03:57:58\nTagged date : UTC 2014-05-19 03:57:58\n\nAll .srt UTF-8 &amp; .idx subs can be turned On/Off\n_____________________________________\n---------------------------------------------------------------------------------\n\nGeneral Metadata\n\nComplete name : Jack Ryan: Shadow Recruit.2014.808p.BluRay.5.1.x264 . NVEE.mp4\nFormat : MPEG-4\nFormat profile : Base Media\nCodec ID : isom\nFile size : 2.12 GiB\nDuration : 1h 45mn\nOverall bit rate mode : Variable\nOverall bit rate : 2 874 Kbps\nEncoded date : UTC 2014-05-19 03:48:18\nTagged date : UTC 2014-05-19 03:48:18\n\n\nVideo\n\nID : 1\nFormat : AVC\nFormat/Info : Advanced Video Codec\nFormat profile : &lt;a class=&quot;__cf_email__&quot; href=&quot;/cdn-cgi/l/email-protection&quot; data-cfemail=&quot;a5edccc2cde5e9918b94&quot;&gt;[email&amp;#160;protected]&lt;/a&gt;&lt;script data-cfhash='f9e31' type=&quot;text/javascript&quot;&gt;\n/* &lt;![CDATA[ */!function(){try{var t=&quot;currentScript&quot;in document?document.currentScript:function(){for(var t=document.getElementsByTagName(&quot;script&quot;),e=t.length;e--;)if(t[e].getAttribute(&quot;data-cfhash&quot;))return t[e]}();if(t&amp;&amp;t.previousSibling){var e,r,n,i,c=t.previousSibling,a=c.getAttribute(&quot;data-cfemail&quot;);if(a){for(e=&quot;&quot;,r=parseInt(a.substr(0,2),16),n=2;a.length-n;n+=2)i=parseInt(a.substr(n,2),16)^r,e+=String.fromCharCode(i);e=document.createTextNode(e),c.parentNode.replaceChild(e,c)}t.parentNode.removeChild(t);}}catch(u){}}()/* ]]&gt; */&lt;/script&gt;\nFormat settings, CABAC : Yes\nFormat settings, ReFrames : 3 frames\nCodec ID : avc1\nCodec ID/Info : Advanced Video Coding\nDuration : 1h 45mn\nBit rate : 2 425 Kbps\nMaximum bit rate : 13.4 Mbps\nWidth : 1 920 pixels\nHeight : 808 pixels\nDisplay aspect ratio : 2.40:1\nFrame rate mode : Constant\nFrame rate : 23.976 fps\nColor space : YUV\nChroma subsampling : 4:2:0\nBit depth : 8 bits\nScan type : Progressive\nBits/(Pixel*Frame) : 0.065\nStream size : 1.79 GiB (84%)\nWriting library : x264 core 142 r2409 d6b4e63\nEncoded from Physical Blu-ray / Region B\n\n\nAudio\n\nID : 2\nFormat : AC-3\nFormat/Info : Audio Coding 3\nMode extension : CM (complete main)\nFormat settings, Endianness : Big\nCodec ID : ac-3\nDuration : 1h 45mn\nBit rate mode : Constant\nBit rate : 448 Kbps\nChannel(s) : 6 channels\nChannel positions : Front: L C R, Side: L R, LFE\nSampling rate : 48.0 KHz\nBit depth : 16 bits\nCompression mode : Lossy\nStream size : 338 MiB (16%)\nLanguage : English\nEncoded date : UTC 2014-05-19 03:57:51\nTagged date : UTC 2014-05-19 03:57:58\nEncoded from Physical Blu-ray 6 Channel audio &quot;Always&quot;.\n\n\nEnj0y !\n","torrent":{"xt":"urn:btih:2a2ea883d4e9449b96474007580fca5e7d608da2","amp;dn":"Jack+Ryan%3A+Shadow+Recruit.2014.1080p.BluRay.5.1.x264+.+NVEE","amp;tr":["udp%3A%2F%2Ftracker.openbittorrent.com%3A80","udp%3A%2F%2Fopen.demonii.com%3A1337","udp%3A%2F%2Ftracker.coppersurfer.tk%3A6969","udp%3A%2F%2Fexodus.desync.com%3A6969"],"infoHash":"2a2ea883d4e9449b96474007580fca5e7d608da2","infoHashBuffer":{"type":"Buffer","data":[42,46,168,131,212,233,68,155,150,71,64,7,88,15,202,94,125,96,141,162]},"announce":[],"urlList":[]}}